<?xml version="1.0" encoding="UTF-8" standalone="no"?>
<!DOCTYPE svg PUBLIC "-//W3C//DTD SVG 1.1//EN" "http://www.w3.org/Graphics/SVG/1.1/DTD/svg11.dtd">
<!-- <svg width="100%" height="100%" viewBox="0 0 32 32" version="1.1" xmlns="http://www.w3.org/2000/svg" xmlns:xlink="http://www.w3.org/1999/xlink" xml:space="preserve" xmlns:serif="http://www.serif.com/" style="fill-rule:evenodd;clip-rule:evenodd;stroke-linejoin:round;stroke-miterlimit:2;">
    <path id="paste" d="M25.334,4L19.76,4C19.2,2.453 17.733,1.333 16,1.333C14.267,1.333 12.8,2.453 12.24,4L6.667,4C5.2,4 4,5.2 4,6.667L4,28C4,29.467 5.2,30.667 6.667,30.667L25.334,30.667C26.801,30.667 28.001,29.467 28.001,28L28.001,6.667C28.001,5.2 26.801,4 25.334,4ZM16,4C16.733,4 17.333,4.6 17.333,5.333C17.333,6.066 16.733,6.666 16,6.666C15.267,6.666 14.667,6.066 14.667,5.333C14.667,4.6 15.267,4 16,4ZM25.333,28L6.666,28L6.666,6.667L9.333,6.667L9.333,10.667L22.666,10.667L22.666,6.667L25.333,6.667L25.333,28Z" style="fill-rule:nonzero;"/>
</svg> -->
<svg xmlns="http://www.w3.org/2000/svg" xmlns:xlink="http://www.w3.org/1999/xlink" version="1.1" id="Layer_1" x="0px" y="0px" viewBox="0 0 117.74 122.88" style="enable-background:new 0 0 117.74 122.88" xml:space="preserve"><style type="text/css">.st0{fill-rule:evenodd;clip-rule:evenodd;}</style><g><path class="st0" d="M94.62,2c-1.46-1.36-3.14-2.09-5.02-1.99c-1.88,0-3.56,0.73-4.92,2.2L73.59,13.72l31.07,30.03l11.19-11.72 c1.36-1.36,1.88-3.14,1.88-5.02s-0.73-3.66-2.09-4.92L94.62,2L94.62,2L94.62,2z M41.44,109.58c-4.08,1.36-8.26,2.62-12.35,3.98 c-4.08,1.36-8.16,2.72-12.35,4.08c-9.73,3.14-15.07,4.92-16.22,5.23c-1.15,0.31-0.42-4.18,1.99-13.6l7.74-29.61l0.64-0.66 l30.56,30.56L41.44,109.58L41.44,109.58L41.44,109.58z M22.2,67.25l42.99-44.82l31.07,29.92L52.75,97.8L22.2,67.25L22.2,67.25z"/></g></svg>