<svg xmlns="http://www.w3.org/2000/svg" xmlns:xlink="http://www.w3.org/1999/xlink" version="1.1" x="0px" y="0px" viewBox="0 0 1000 1000" enable-background="new 0 0 1000 1000" xml:space="preserve">
<metadata> Svg Vector Icons : http://www.onlinewebfonts.com/icon </metadata>
<g><g transform="translate(0.000000,511.000000) scale(0.100000,-0.100000)"><path d="M4773.4,4984.6c-233.6-77.1-394.7-214.9-516.2-441.5l-63.1-121.5l-7-2415.2c-7-2672.1-11.7-2546,142.5-2772.5c168.2-247.6,509.2-392.4,791.8-341c284.9,53.7,504.5,217.2,621.3,467.1l63.1,133.1v2452.5v2452.5l-60.7,130.8c-135.5,289.6-394.7,464.8-705.4,478.8C4939.3,5015,4831.8,5003.3,4773.4,4984.6z"/><path d="M2057,3393.9c-168.2-46.7-266.3-114.4-450.8-308.3C910.1,2359.2,457,1368.8,354.2,348.1C228.1-875.8,615.8-2153.5,1391.3-3087.8c177.5-212.5,555.9-581.6,747.4-726.4c875.9-670.4,1971.4-1018.4,3048.2-971.7c1228.6,56.1,2317.1,544.2,3164.9,1420.1c378.4,392.4,621.3,738.1,852.6,1216.9c628.3,1298.7,619,2807.5-23.4,4101.6c-233.6,469.5-464.8,796.5-810.5,1156.2c-186.9,191.5-259.3,238.3-450.8,287.3c-390.1,100.4-817.5-123.8-957.7-499.9c-39.7-107.4-49-172.9-42-331.7c9.3-252.2,58.4-357.4,280.3-600.3c406.4-448.5,647-913.3,768.4-1485.5c72.4-336.4,72.4-864.2,0-1200.6c-128.5-607.3-397.1-1102.5-831.5-1536.9c-434.4-436.8-932-705.4-1536.9-831.5c-338.7-72.4-866.6-72.4-1200.6,0C3189.8-2833.2,2285.9-1931.6,2031.3-721.6c-72.4,336.3-72.4,864.2,0,1200.6c119.1,567.6,366.7,1046.4,756.8,1473.8c217.2,235.9,280.3,364.4,292,612c7,163.5,0,221.9-42,331.7C2895.5,3279.5,2451.7,3503.7,2057,3393.9z"/></g></g>
</svg>